# xmcd
#
# Track frame offsets:
#	150
#	72765
#	89697
#	100632
#	110442
#	126930
#	141135
#	151007
#	168587
#	178067
#	192945
#	218300
#	229600
#	250005
#
# Disc length: 3452 seconds
#
# Revision: 0
# Processed by: cddbd v1.5.2PL0 Copyright (c) Steve Scherf et al.
# Submitted via: audiograbber 1.83.01
#
DISCID=b40d7a0e
DTITLE=басос йымстамтимоу - 34 паяадосиайа йупяиайа тяацоудиа CD1
DYEAR=2005
DGENRE=Country
TTITLE0=то тяацоуди тоу цалоу
TTITLE1=о вояос тоу амтяошмоу
TTITLE2=то яесим
TTITLE3=та лайоуяоумиа
TTITLE4=коукка лоу лаяоукка лоу
TTITLE5=ьимтяг басикитфиа лоу
TTITLE6=та яиакиа
TTITLE7=г бяайа
TTITLE8=г тгккуяйытисса
TTITLE9=тсиаййаяа лаййаяа
TTITLE10=аициа йотсигмг
TTITLE11=то лгком
TTITLE12=стеике ле лама сто меяо
TTITLE13=г соуста
EXTD=
EXTT0=
EXTT1=
EXTT2=
EXTT3=
EXTT4=
EXTT5=
EXTT6=
EXTT7=
EXTT8=
EXTT9=
EXTT10=
EXTT11=
EXTT12=
EXTT13=
PLAYORDER=
